<svg xmlns="http://www.w3.org/2000/svg" xmlns:xlink="http://www.w3.org/1999/xlink" width="500" zoomAndPan="magnify" viewBox="0 0 375 374.999991" height="500" preserveAspectRatio="xMidYMid meet" version="1.0"><defs><g/><clipPath id="f01e29ba51"><path d="M 91 133 L 189 133 L 189 239 L 91 239 Z M 91 133 " clip-rule="nonzero"/></clipPath><clipPath id="4cb2d7da07"><path d="M 134.019531 112.078125 L 221.917969 178.628906 L 158.082031 262.9375 L 70.183594 196.386719 Z M 134.019531 112.078125 " clip-rule="nonzero"/></clipPath><clipPath id="269a981fa8"><path d="M 134.019531 112.078125 L 221.917969 178.628906 L 158.082031 262.9375 L 70.183594 196.386719 Z M 134.019531 112.078125 " clip-rule="nonzero"/></clipPath><clipPath id="e77493e317"><path d="M 134.0625 112.109375 L 214.5625 173.058594 L 150.824219 257.242188 L 70.324219 196.289062 Z M 134.0625 112.109375 " clip-rule="nonzero"/></clipPath><clipPath id="183baa804c"><path d="M 157 219 L 179 219 L 179 244 L 157 244 Z M 157 219 " clip-rule="nonzero"/></clipPath><clipPath id="5a0d84607b"><path d="M 134.019531 112.078125 L 221.917969 178.628906 L 158.082031 262.9375 L 70.183594 196.386719 Z M 134.019531 112.078125 " clip-rule="nonzero"/></clipPath><clipPath id="c6696700c2"><path d="M 134.019531 112.078125 L 221.917969 178.628906 L 158.082031 262.9375 L 70.183594 196.386719 Z M 134.019531 112.078125 " clip-rule="nonzero"/></clipPath><clipPath id="e535d66c98"><path d="M 163.144531 212.675781 L 184.207031 228.621094 L 171.90625 244.863281 L 150.847656 228.917969 Z M 163.144531 212.675781 " clip-rule="nonzero"/></clipPath></defs><g clip-path="url(#f01e29ba51)"><g clip-path="url(#4cb2d7da07)"><g clip-path="url(#269a981fa8)"><g clip-path="url(#e77493e317)"><path fill="#a6d16c" d="M 184.367188 159.320312 C 176.984375 148.253906 165.8125 141.226562 153.714844 138.8125 C 141.621094 136.394531 128.605469 138.59375 117.535156 145.980469 C 106.46875 153.363281 99.441406 164.539062 97.023438 176.636719 C 94.609375 188.730469 96.808594 201.746094 104.195312 212.816406 C 111.578125 223.882812 122.753906 230.910156 134.851562 233.324219 C 145.496094 235.449219 156.859375 234 166.976562 228.582031 L 170.210938 229.46875 L 169.207031 232.59375 C 158.105469 238.558594 145.632812 240.160156 133.945312 237.824219 C 120.703125 235.183594 108.464844 227.484375 100.375 215.359375 L 100.375 215.355469 C 92.289062 203.234375 89.878906 188.980469 92.523438 175.730469 C 95.167969 162.488281 102.867188 150.253906 114.992188 142.164062 L 114.992188 142.160156 C 127.117188 134.074219 141.371094 131.664062 154.617188 134.308594 C 167.859375 136.953125 180.097656 144.652344 188.1875 156.777344 Z M 114.992188 142.164062 L 114.992188 142.160156 Z M 100.375 215.355469 L 100.375 215.355469 " fill-opacity="1" fill-rule="nonzero"/></g></g></g></g><g clip-path="url(#183baa804c)"><g clip-path="url(#5a0d84607b)"><g clip-path="url(#c6696700c2)"><g clip-path="url(#e535d66c98)"><path fill="#a6d16c" d="M 168.5625 242.105469 L 173.136719 227.886719 L 157.183594 223.511719 L 158.394531 219.082031 L 176.664062 224.089844 L 178.976562 224.726562 L 178.238281 227.011719 L 172.929688 243.515625 L 168.5625 242.105469 " fill-opacity="1" fill-rule="nonzero"/></g></g></g></g><g fill="#a6d16c" fill-opacity="1"><g transform="translate(111.933876, 222.996267)"><g><path d="M 42.796875 -66.234375 L 34.34375 -67.09375 C 31.300781 -67.09375 28.941406 -66.351562 27.265625 -64.875 C 25.484375 -63.226562 24.171875 -60.066406 23.328125 -55.390625 C 22.492188 -50.710938 21.691406 -44.492188 20.921875 -36.734375 C 20.148438 -28.972656 19.765625 -23.375 19.765625 -19.9375 C 19.765625 -16.5 20.316406 -14.066406 21.421875 -12.640625 C 22.523438 -11.222656 23.835938 -10.515625 25.359375 -10.515625 C 26.890625 -10.515625 28.125 -10.53125 29.0625 -10.5625 L 32.390625 -39.078125 C 32.523438 -39.816406 32.960938 -40.21875 33.703125 -40.28125 L 43.15625 -40.640625 C 44.0625 -40.609375 44.515625 -40.207031 44.515625 -39.4375 L 40.28125 -1.703125 C 40.144531 -0.972656 39.691406 -0.554688 38.921875 -0.453125 C 34.460938 0.210938 29.03125 0.546875 22.625 0.546875 C 14.945312 0.546875 10.019531 -3.15625 7.84375 -10.5625 C 7.238281 -12.601562 6.9375 -14.628906 6.9375 -16.640625 C 6.9375 -18.660156 7.003906 -21.039062 7.140625 -23.78125 C 7.546875 -33.644531 8.71875 -43.875 10.65625 -54.46875 C 11.96875 -61.84375 13.578125 -67.023438 15.484375 -70.015625 C 17.503906 -73.128906 19.921875 -75.304688 22.734375 -76.546875 C 26.253906 -78.085938 30.023438 -78.859375 34.046875 -78.859375 C 38.066406 -78.859375 40.75 -78.75 42.09375 -78.53125 C 43.4375 -78.3125 44.191406 -78.1875 44.359375 -78.15625 C 44.765625 -78.019531 44.96875 -77.597656 44.96875 -76.890625 L 43.859375 -67.546875 C 43.722656 -66.671875 43.367188 -66.234375 42.796875 -66.234375 Z M 42.796875 -66.234375 "/></g></g></g><g fill="#7fa051" fill-opacity="1"><g transform="translate(163.420921, 201.576241)"><g><path d="M 12.640625 -0.75 C 12.609375 -0.613281 12.566406 -0.519531 12.515625 -0.46875 C 12.460938 -0.414062 11.914062 -0.289062 10.875 -0.09375 C 9.832031 0.09375 8.78125 0.1875 7.71875 0.1875 C 5.96875 0.1875 4.628906 -0.375 3.703125 -1.5 C 2.773438 -2.632812 2.3125 -4.175781 2.3125 -6.125 C 2.3125 -9.582031 2.726562 -13.597656 3.5625 -18.171875 C 4 -20.628906 4.535156 -22.359375 5.171875 -23.359375 C 5.835938 -24.390625 6.640625 -25.113281 7.578125 -25.53125 C 8.753906 -26.050781 10.007812 -26.3125 11.34375 -26.3125 C 12.6875 -26.3125 13.582031 -26.273438 14.03125 -26.203125 C 14.488281 -26.128906 14.742188 -26.085938 14.796875 -26.078125 C 14.941406 -26.023438 15.015625 -25.882812 15.015625 -25.65625 L 14.625 -22.53125 C 14.582031 -22.238281 14.472656 -22.09375 14.296875 -22.09375 C 14.117188 -22.09375 13.703125 -22.140625 13.046875 -22.234375 C 12.398438 -22.328125 11.875 -22.375 11.46875 -22.375 C 10.394531 -22.375 9.578125 -22.101562 9.015625 -21.5625 C 8.460938 -21.019531 8.046875 -19.976562 7.765625 -18.4375 C 7.492188 -16.90625 7.226562 -14.84375 6.96875 -12.25 C 6.71875 -9.664062 6.59375 -7.6875 6.59375 -6.3125 C 6.59375 -4.6875 7.304688 -3.875 8.734375 -3.875 C 9.148438 -3.875 9.875 -3.941406 10.90625 -4.078125 C 11.9375 -4.222656 12.523438 -4.296875 12.671875 -4.296875 C 12.898438 -4.296875 13.015625 -4.15625 13.015625 -3.875 Z M 12.640625 -0.75 "/></g></g></g><g fill="#7fa051" fill-opacity="1"><g transform="translate(178.084052, 201.576241)"><g><path d="M 7.9375 0.1875 C 5.957031 0.1875 4.503906 -0.40625 3.578125 -1.59375 C 2.660156 -2.789062 2.203125 -4.53125 2.203125 -6.8125 C 2.203125 -7.875 2.316406 -9.257812 2.546875 -10.96875 C 2.785156 -12.6875 3.003906 -13.929688 3.203125 -14.703125 C 3.398438 -15.484375 3.679688 -16.242188 4.046875 -16.984375 C 4.421875 -17.734375 4.863281 -18.347656 5.375 -18.828125 C 6.476562 -19.898438 7.972656 -20.4375 9.859375 -20.4375 C 12.546875 -20.4375 14.285156 -19.453125 15.078125 -17.484375 C 15.503906 -16.429688 15.71875 -15.15625 15.71875 -13.65625 C 15.71875 -12.164062 15.601562 -10.617188 15.375 -9.015625 C 15.144531 -7.421875 14.925781 -6.238281 14.71875 -5.46875 C 14.519531 -4.707031 14.238281 -3.957031 13.875 -3.21875 C 13.519531 -2.488281 13.085938 -1.882812 12.578125 -1.40625 C 11.472656 -0.34375 9.925781 0.1875 7.9375 0.1875 Z M 10.90625 -7.15625 C 11.03125 -7.75 11.1875 -8.859375 11.375 -10.484375 C 11.570312 -12.117188 11.671875 -13.328125 11.671875 -14.109375 C 11.671875 -16.015625 10.984375 -16.96875 9.609375 -16.96875 C 8.960938 -16.96875 8.425781 -16.65625 8 -16.03125 C 7.582031 -15.414062 7.25 -14.394531 7 -12.96875 C 6.476562 -10.0625 6.21875 -7.703125 6.21875 -5.890625 C 6.21875 -4.078125 6.898438 -3.171875 8.265625 -3.171875 C 8.921875 -3.171875 9.460938 -3.476562 9.890625 -4.09375 C 10.316406 -4.71875 10.65625 -5.738281 10.90625 -7.15625 Z M 10.90625 -7.15625 "/></g></g></g><g fill="#7fa051" fill-opacity="1"><g transform="translate(195.246961, 201.576241)"><g><path d="M 8.15625 -19.84375 L 7.96875 -18.296875 C 9.582031 -19.722656 11.125 -20.4375 12.59375 -20.4375 C 14.476562 -20.4375 15.664062 -19.40625 16.15625 -17.34375 C 16.289062 -16.789062 16.359375 -16.265625 16.359375 -15.765625 C 16.359375 -15.265625 16.34375 -14.863281 16.3125 -14.5625 L 14.703125 -0.5 C 14.648438 -0.21875 14.507812 -0.0664062 14.28125 -0.046875 L 10.890625 0.0625 C 10.640625 0.0390625 10.515625 -0.0625 10.515625 -0.25 L 12.046875 -13.546875 C 12.078125 -13.828125 12.09375 -14.085938 12.09375 -14.328125 C 12.09375 -15.242188 11.875 -15.863281 11.4375 -16.1875 C 11.007812 -16.519531 10.46875 -16.6875 9.8125 -16.6875 C 9.15625 -16.6875 8.46875 -16.550781 7.75 -16.28125 L 5.953125 -0.5 C 5.910156 -0.21875 5.769531 -0.0664062 5.53125 -0.046875 L 2.140625 0.0625 C 1.898438 0.0390625 1.78125 -0.0625 1.78125 -0.25 L 4 -19.765625 C 4.039062 -20.003906 4.175781 -20.140625 4.40625 -20.171875 L 7.703125 -20.28125 C 8.003906 -20.269531 8.15625 -20.125 8.15625 -19.84375 Z M 8.15625 -19.84375 "/></g></g></g><g fill="#7fa051" fill-opacity="1"><g transform="translate(213.14806, 201.576241)"><g><path d="M 8.15625 -19.84375 L 7.96875 -18.296875 C 9.582031 -19.722656 11.125 -20.4375 12.59375 -20.4375 C 14.476562 -20.4375 15.664062 -19.40625 16.15625 -17.34375 C 16.289062 -16.789062 16.359375 -16.265625 16.359375 -15.765625 C 16.359375 -15.265625 16.34375 -14.863281 16.3125 -14.5625 L 14.703125 -0.5 C 14.648438 -0.21875 14.507812 -0.0664062 14.28125 -0.046875 L 10.890625 0.0625 C 10.640625 0.0390625 10.515625 -0.0625 10.515625 -0.25 L 12.046875 -13.546875 C 12.078125 -13.828125 12.09375 -14.085938 12.09375 -14.328125 C 12.09375 -15.242188 11.875 -15.863281 11.4375 -16.1875 C 11.007812 -16.519531 10.46875 -16.6875 9.8125 -16.6875 C 9.15625 -16.6875 8.46875 -16.550781 7.75 -16.28125 L 5.953125 -0.5 C 5.910156 -0.21875 5.769531 -0.0664062 5.53125 -0.046875 L 2.140625 0.0625 C 1.898438 0.0390625 1.78125 -0.0625 1.78125 -0.25 L 4 -19.765625 C 4.039062 -20.003906 4.175781 -20.140625 4.40625 -20.171875 L 7.703125 -20.28125 C 8.003906 -20.269531 8.15625 -20.125 8.15625 -19.84375 Z M 8.15625 -19.84375 "/></g></g></g><g fill="#7fa051" fill-opacity="1"><g transform="translate(231.04916, 201.576241)"><g><path d="M 2.875 -3.140625 C 2.613281 -3.804688 2.4375 -4.46875 2.34375 -5.125 C 2.25 -5.78125 2.203125 -6.675781 2.203125 -7.8125 C 2.203125 -8.957031 2.320312 -10.367188 2.5625 -12.046875 C 3.382812 -17.640625 5.925781 -20.4375 10.1875 -20.4375 C 11.832031 -20.4375 13.085938 -19.867188 13.953125 -18.734375 C 14.828125 -17.609375 15.265625 -16.144531 15.265625 -14.34375 C 15.265625 -12.539062 15.15625 -10.789062 14.9375 -9.09375 C 14.894531 -8.789062 14.71875 -8.632812 14.40625 -8.625 L 6.125 -8.34375 C 6.113281 -8.175781 6.109375 -7.953125 6.109375 -7.671875 C 6.109375 -6.398438 6.328125 -5.394531 6.765625 -4.65625 C 7.210938 -3.925781 7.878906 -3.5625 8.765625 -3.5625 C 9.660156 -3.5625 10.492188 -3.691406 11.265625 -3.953125 C 12.035156 -4.210938 12.484375 -4.34375 12.609375 -4.34375 C 12.742188 -4.34375 12.863281 -4.296875 12.96875 -4.203125 C 13.070312 -4.117188 13.125 -4 13.125 -3.84375 L 12.78125 -0.890625 C 12.769531 -0.722656 12.738281 -0.613281 12.6875 -0.5625 C 12.632812 -0.507812 12.535156 -0.457031 12.390625 -0.40625 C 11.046875 -0.0078125 9.742188 0.1875 8.484375 0.1875 C 7.234375 0.1875 6.257812 0.0351562 5.5625 -0.265625 C 4.875 -0.566406 4.316406 -0.953125 3.890625 -1.421875 C 3.472656 -1.898438 3.132812 -2.472656 2.875 -3.140625 Z M 6.53125 -12.546875 L 6.375 -11.46875 L 10.75 -11.6875 C 10.945312 -11.695312 11.070312 -11.734375 11.125 -11.796875 C 11.289062 -11.960938 11.375 -12.421875 11.375 -13.171875 C 11.375 -13.929688 11.347656 -14.460938 11.296875 -14.765625 C 11.242188 -15.078125 11.160156 -15.394531 11.046875 -15.71875 C 10.785156 -16.4375 10.34375 -16.796875 9.71875 -16.796875 C 9.101562 -16.796875 8.613281 -16.6875 8.25 -16.46875 C 7.457031 -15.976562 6.882812 -14.671875 6.53125 -12.546875 Z M 6.53125 -12.546875 "/></g></g></g><g fill="#7fa051" fill-opacity="1"><g transform="translate(247.759089, 201.576241)"><g><path d="M 13.8125 -19.921875 C 14.050781 -19.828125 14.171875 -19.613281 14.171875 -19.28125 L 13.796875 -16.234375 C 13.765625 -16.015625 13.609375 -15.90625 13.328125 -15.90625 C 13.046875 -15.90625 12.773438 -15.960938 12.515625 -16.078125 C 11.429688 -16.554688 10.53125 -16.796875 9.8125 -16.796875 C 9.09375 -16.796875 8.519531 -16.5 8.09375 -15.90625 C 7.675781 -15.3125 7.335938 -14.460938 7.078125 -13.359375 C 6.597656 -11.285156 6.359375 -9.394531 6.359375 -7.6875 C 6.359375 -4.9375 7.066406 -3.5625 8.484375 -3.5625 C 9.515625 -3.5625 10.347656 -3.691406 10.984375 -3.953125 C 11.617188 -4.210938 12.035156 -4.34375 12.234375 -4.34375 C 12.617188 -4.34375 12.8125 -4.175781 12.8125 -3.84375 L 12.46875 -0.890625 C 12.445312 -0.691406 12.40625 -0.570312 12.34375 -0.53125 C 12.28125 -0.488281 12.195312 -0.445312 12.09375 -0.40625 C 10.738281 -0.0078125 9.46875 0.1875 8.28125 0.1875 C 7.09375 0.1875 6.148438 0.0351562 5.453125 -0.265625 C 4.765625 -0.566406 4.21875 -0.953125 3.8125 -1.421875 C 3.414062 -1.898438 3.097656 -2.476562 2.859375 -3.15625 C 2.421875 -4.300781 2.203125 -5.71875 2.203125 -7.40625 C 2.203125 -9.09375 2.3125 -10.554688 2.53125 -11.796875 C 2.75 -13.046875 2.976562 -14.0625 3.21875 -14.84375 C 3.457031 -15.625 3.773438 -16.375 4.171875 -17.09375 C 4.578125 -17.820312 5.050781 -18.421875 5.59375 -18.890625 C 6.757812 -19.921875 8.3125 -20.4375 10.25 -20.4375 C 11.550781 -20.4375 12.738281 -20.265625 13.8125 -19.921875 Z M 13.8125 -19.921875 "/></g></g></g><g fill="#7fa051" fill-opacity="1"><g transform="translate(262.623544, 201.576241)"><g><path d="M 4.421875 -20.21875 C 4.679688 -22.675781 4.847656 -23.945312 4.921875 -24.03125 C 5.003906 -24.113281 5.125 -24.160156 5.28125 -24.171875 L 8.484375 -24.296875 C 8.785156 -24.273438 8.9375 -24.132812 8.9375 -23.875 C 8.726562 -22.632812 8.550781 -21.441406 8.40625 -20.296875 L 12.3125 -20.4375 C 12.582031 -20.425781 12.71875 -20.28125 12.71875 -20 L 12.25 -17.328125 C 12.207031 -17.054688 12.066406 -16.914062 11.828125 -16.90625 L 7.984375 -16.765625 C 7.222656 -9.921875 6.84375 -6.144531 6.84375 -5.4375 C 6.84375 -4.125 7.398438 -3.46875 8.515625 -3.46875 C 9.085938 -3.46875 9.640625 -3.554688 10.171875 -3.734375 C 10.710938 -3.921875 11.050781 -4.015625 11.1875 -4.015625 C 11.425781 -4.015625 11.546875 -3.867188 11.546875 -3.578125 L 11.1875 -0.640625 C 11.164062 -0.472656 11.125 -0.347656 11.0625 -0.265625 C 11 -0.191406 10.722656 -0.0976562 10.234375 0.015625 C 9.753906 0.128906 8.925781 0.1875 7.75 0.1875 C 6.03125 0.1875 4.753906 -0.210938 3.921875 -1.015625 C 3.097656 -1.816406 2.6875 -3.007812 2.6875 -4.59375 C 2.6875 -6.1875 3.128906 -10.222656 4.015625 -16.703125 L 2.359375 -16.640625 C 2.085938 -16.648438 1.953125 -16.789062 1.953125 -17.0625 L 2.40625 -19.765625 C 2.4375 -20.023438 2.578125 -20.160156 2.828125 -20.171875 Z M 4.421875 -20.21875 "/></g></g></g></svg>