<svg xmlns="http://www.w3.org/2000/svg" xmlns:xlink="http://www.w3.org/1999/xlink" width="500" zoomAndPan="magnify" viewBox="0 0 375 374.999991" height="500" preserveAspectRatio="xMidYMid meet" version="1.0"><defs><g/><clipPath id="3410e47df4"><path d="M 52 53 L 292 53 L 292 315 L 52 315 Z M 52 53 " clip-rule="nonzero"/></clipPath><clipPath id="7ac863ccfb"><path d="M 157.484375 1.15625 L 375.132812 165.953125 L 217.582031 374.035156 L -0.0664062 209.238281 Z M 157.484375 1.15625 " clip-rule="nonzero"/></clipPath><clipPath id="b169644951"><path d="M 157.484375 1.15625 L 375.132812 165.953125 L 217.582031 374.035156 L -0.0664062 209.238281 Z M 157.484375 1.15625 " clip-rule="nonzero"/></clipPath><clipPath id="84c6646bf0"><path d="M 157.582031 1.230469 L 356.480469 151.828125 L 198.996094 359.824219 L 0.09375 209.222656 Z M 157.582031 1.230469 " clip-rule="nonzero"/></clipPath><clipPath id="0769406f77"><path d="M 214 265 L 269 265 L 269 326 L 214 326 Z M 214 265 " clip-rule="nonzero"/></clipPath><clipPath id="82d5c99c9a"><path d="M 157.484375 1.15625 L 375.132812 165.953125 L 217.582031 374.035156 L -0.0664062 209.238281 Z M 157.484375 1.15625 " clip-rule="nonzero"/></clipPath><clipPath id="320694e9b2"><path d="M 157.484375 1.15625 L 375.132812 165.953125 L 217.582031 374.035156 L -0.0664062 209.238281 Z M 157.484375 1.15625 " clip-rule="nonzero"/></clipPath><clipPath id="bf92a12910"><path d="M 229.441406 249.710938 L 281.480469 289.113281 L 251.09375 329.246094 L 199.050781 289.84375 Z M 229.441406 249.710938 " clip-rule="nonzero"/></clipPath></defs><g clip-path="url(#3410e47df4)"><g clip-path="url(#7ac863ccfb)"><g clip-path="url(#b169644951)"><g clip-path="url(#84c6646bf0)"><path fill="#a6d16c" d="M 281.878906 117.882812 C 263.636719 90.539062 236.027344 73.171875 206.136719 67.207031 C 176.257812 61.242188 144.097656 66.675781 116.746094 84.925781 C 89.402344 103.167969 72.039062 130.777344 66.070312 160.667969 C 60.105469 190.546875 65.539062 222.703125 83.789062 250.058594 C 102.03125 277.402344 129.640625 294.765625 159.53125 300.734375 C 185.835938 305.984375 213.910156 302.398438 238.914062 289.015625 L 246.902344 291.207031 L 244.417969 298.929688 C 216.988281 313.664062 186.171875 317.621094 157.292969 311.855469 C 124.574219 305.320312 94.339844 286.300781 74.351562 256.339844 L 74.351562 256.335938 C 54.367188 226.382812 48.414062 191.164062 54.949219 158.429688 C 61.480469 125.710938 80.503906 95.476562 110.464844 75.488281 L 110.464844 75.484375 C 140.421875 55.503906 175.640625 49.550781 208.375 56.085938 C 241.09375 62.617188 271.328125 81.636719 291.316406 111.601562 Z M 110.464844 75.488281 L 110.464844 75.484375 Z M 74.347656 256.339844 L 74.351562 256.335938 L 74.347656 256.339844 " fill-opacity="1" fill-rule="nonzero"/></g></g></g></g><g clip-path="url(#0769406f77)"><g clip-path="url(#82d5c99c9a)"><g clip-path="url(#320694e9b2)"><g clip-path="url(#bf92a12910)"><path fill="#a6d16c" d="M 242.828125 322.425781 L 254.132812 287.292969 L 214.714844 276.484375 L 217.707031 265.542969 L 262.839844 277.917969 L 268.554688 279.484375 L 266.738281 285.132812 L 253.617188 325.914062 L 242.828125 322.425781 " fill-opacity="1" fill-rule="nonzero"/></g></g></g></g><g fill="#a6d16c" fill-opacity="1"><g transform="translate(102.912737, 275.198796)"><g><path d="M 105.734375 -163.640625 L 84.859375 -165.75 C 77.328125 -165.75 71.488281 -163.925781 67.34375 -160.28125 C 62.957031 -156.226562 59.726562 -148.421875 57.65625 -136.859375 C 55.582031 -125.304688 53.59375 -109.941406 51.6875 -90.765625 C 49.78125 -71.585938 48.828125 -57.753906 48.828125 -49.265625 C 48.828125 -40.773438 50.191406 -34.769531 52.921875 -31.25 C 55.660156 -27.726562 58.914062 -25.96875 62.6875 -25.96875 C 66.457031 -25.96875 69.5 -26.007812 71.8125 -26.09375 L 80.015625 -96.546875 C 80.347656 -98.367188 81.425781 -99.363281 83.25 -99.53125 L 106.609375 -100.390625 C 108.847656 -100.304688 109.96875 -99.3125 109.96875 -97.40625 L 99.53125 -4.21875 C 99.195312 -2.394531 98.078125 -1.363281 96.171875 -1.125 C 85.148438 0.53125 71.726562 1.359375 55.90625 1.359375 C 36.9375 1.359375 24.765625 -7.789062 19.390625 -26.09375 C 17.890625 -31.144531 17.140625 -36.15625 17.140625 -41.125 C 17.140625 -46.09375 17.304688 -51.972656 17.640625 -58.765625 C 18.640625 -83.117188 21.539062 -108.382812 26.34375 -134.5625 C 29.570312 -152.789062 33.546875 -165.585938 38.265625 -172.953125 C 43.234375 -180.660156 49.195312 -186.046875 56.15625 -189.109375 C 64.851562 -192.921875 74.171875 -194.828125 84.109375 -194.828125 C 94.054688 -194.828125 100.6875 -194.554688 104 -194.015625 C 107.3125 -193.484375 109.175781 -193.175781 109.59375 -193.09375 C 110.582031 -192.757812 111.078125 -191.722656 111.078125 -189.984375 L 108.34375 -166.875 C 108.007812 -164.71875 107.140625 -163.640625 105.734375 -163.640625 Z M 105.734375 -163.640625 "/></g></g></g></svg>