<svg xmlns="http://www.w3.org/2000/svg" xmlns:xlink="http://www.w3.org/1999/xlink" width="540" zoomAndPan="magnify" viewBox="0 0 404.88 151.500001" height="202" preserveAspectRatio="xMidYMid meet" version="1.0"><defs><g/><clipPath id="267d088b8d"><path d="M 39 21 L 137 21 L 137 127 L 39 127 Z M 39 21 " clip-rule="nonzero"/></clipPath><clipPath id="b9839f1114"><path d="M 82.023438 0 L 169.628906 66.332031 L 106.003906 150.363281 L 18.398438 84.03125 Z M 82.023438 0 " clip-rule="nonzero"/></clipPath><clipPath id="603bdcb77e"><path d="M 82.023438 0 L 169.628906 66.332031 L 106.003906 150.363281 L 18.398438 84.03125 Z M 82.023438 0 " clip-rule="nonzero"/></clipPath><clipPath id="6fbb7b748d"><path d="M 82.066406 0.03125 L 162.300781 60.78125 L 98.769531 144.6875 L 18.535156 83.933594 Z M 82.066406 0.03125 " clip-rule="nonzero"/></clipPath><clipPath id="a88a381540"><path d="M 105 106 L 127 106 L 127 132 L 105 132 Z M 105 106 " clip-rule="nonzero"/></clipPath><clipPath id="3c207e84ee"><path d="M 82.023438 0 L 169.628906 66.332031 L 106.003906 150.363281 L 18.398438 84.03125 Z M 82.023438 0 " clip-rule="nonzero"/></clipPath><clipPath id="37244b6510"><path d="M 82.023438 0 L 169.628906 66.332031 L 106.003906 150.363281 L 18.398438 84.03125 Z M 82.023438 0 " clip-rule="nonzero"/></clipPath><clipPath id="b007182d8c"><path d="M 111.050781 100.265625 L 132.046875 116.160156 L 119.785156 132.351562 L 98.792969 116.457031 Z M 111.050781 100.265625 " clip-rule="nonzero"/></clipPath></defs><g clip-path="url(#267d088b8d)"><g clip-path="url(#b9839f1114)"><g clip-path="url(#603bdcb77e)"><g clip-path="url(#6fbb7b748d)"><path fill="#a6d16c" d="M 132.207031 47.089844 C 124.847656 36.058594 113.710938 29.054688 101.652344 26.648438 C 89.597656 24.238281 76.625 26.429688 65.59375 33.792969 C 54.5625 41.152344 47.558594 52.289062 45.152344 64.347656 C 42.742188 76.402344 44.9375 89.371094 52.296875 100.40625 C 59.65625 111.4375 70.792969 118.441406 82.851562 120.847656 C 93.464844 122.96875 104.789062 121.523438 114.875 116.121094 L 118.097656 117.007812 L 117.09375 120.121094 C 106.03125 126.066406 93.597656 127.660156 81.949219 125.335938 C 68.75 122.699219 56.554688 115.027344 48.492188 102.941406 C 40.429688 90.855469 38.027344 76.648438 40.664062 63.445312 C 43.300781 50.246094 50.972656 38.050781 63.058594 29.988281 L 63.058594 29.984375 C 75.140625 21.925781 89.351562 19.523438 102.554688 22.160156 C 115.753906 24.796875 127.949219 32.46875 136.011719 44.554688 Z M 63.058594 29.988281 L 63.058594 29.984375 Z M 48.488281 102.941406 L 48.492188 102.941406 L 48.488281 102.941406 " fill-opacity="1" fill-rule="nonzero"/></g></g></g></g><g clip-path="url(#a88a381540)"><g clip-path="url(#3c207e84ee)"><g clip-path="url(#37244b6510)"><g clip-path="url(#b007182d8c)"><path fill="#a6d16c" d="M 116.453125 129.601562 L 121.011719 115.425781 L 105.113281 111.066406 L 106.320312 106.65625 L 124.527344 111.644531 L 126.832031 112.277344 L 126.097656 114.554688 L 120.804688 131.007812 L 116.453125 129.601562 " fill-opacity="1" fill-rule="nonzero"/></g></g></g></g><g fill="#a6d16c" fill-opacity="1"><g transform="translate(64.154284, 99.986566)"><g><path d="M 32.890625 -50.90625 L 26.390625 -51.5625 C 24.046875 -51.5625 22.234375 -50.992188 20.953125 -49.859375 C 19.585938 -48.597656 18.582031 -46.171875 17.9375 -42.578125 C 17.289062 -38.984375 16.671875 -34.203125 16.078125 -28.234375 C 15.484375 -22.265625 15.1875 -17.957031 15.1875 -15.3125 C 15.1875 -12.675781 15.609375 -10.8125 16.453125 -9.71875 C 17.304688 -8.625 18.316406 -8.078125 19.484375 -8.078125 C 20.660156 -8.078125 21.613281 -8.085938 22.34375 -8.109375 L 24.890625 -30.03125 C 24.992188 -30.59375 25.328125 -30.898438 25.890625 -30.953125 L 33.15625 -31.234375 C 33.851562 -31.203125 34.203125 -30.890625 34.203125 -30.296875 L 30.953125 -1.3125 C 30.847656 -0.75 30.503906 -0.425781 29.921875 -0.34375 C 26.492188 0.164062 22.316406 0.421875 17.390625 0.421875 C 11.492188 0.421875 7.707031 -2.421875 6.03125 -8.109375 C 5.5625 -9.679688 5.328125 -11.238281 5.328125 -12.78125 C 5.328125 -14.332031 5.378906 -16.164062 5.484375 -18.28125 C 5.796875 -25.851562 6.695312 -33.710938 8.1875 -41.859375 C 9.195312 -47.523438 10.4375 -51.503906 11.90625 -53.796875 C 13.445312 -56.191406 15.300781 -57.867188 17.46875 -58.828125 C 20.175781 -60.015625 23.070312 -60.609375 26.15625 -60.609375 C 29.25 -60.609375 31.3125 -60.519531 32.34375 -60.34375 C 33.375 -60.175781 33.957031 -60.082031 34.09375 -60.0625 C 34.394531 -59.957031 34.546875 -59.632812 34.546875 -59.09375 L 33.703125 -51.90625 C 33.597656 -51.238281 33.328125 -50.90625 32.890625 -50.90625 Z M 32.890625 -50.90625 "/></g></g></g><g fill="#a6d16c" fill-opacity="1"><g transform="translate(93.060142, 99.986566)"><g><path d="M 30.109375 -36.875 L 25.96875 -37.296875 C 22.625 -37.296875 19.816406 -36.625 17.546875 -35.28125 L 13.71875 -1.203125 C 13.613281 -0.554688 13.289062 -0.207031 12.75 -0.15625 L 4.953125 0.15625 C 4.378906 0.101562 4.09375 -0.140625 4.09375 -0.578125 L 9.203125 -45.53125 C 9.304688 -46.09375 9.628906 -46.398438 10.171875 -46.453125 L 17.703125 -46.734375 C 18.398438 -46.703125 18.75 -46.363281 18.75 -45.71875 L 18.28125 -41.75 C 19.925781 -43.414062 21.519531 -44.71875 23.0625 -45.65625 C 24.613281 -46.601562 26.164062 -47.078125 27.71875 -47.078125 C 29.28125 -47.078125 30.476562 -47.015625 31.3125 -46.890625 C 31.851562 -46.785156 32.125 -46.421875 32.125 -45.796875 C 32.125 -44.023438 31.828125 -41.382812 31.234375 -37.875 C 31.097656 -37.207031 30.722656 -36.875 30.109375 -36.875 Z M 30.109375 -36.875 "/></g></g></g><g fill="#a6d16c" fill-opacity="1"><g transform="translate(115.589907, 99.986566)"><g><path d="M 6.625 -7.25 C 6.019531 -8.78125 5.609375 -10.296875 5.390625 -11.796875 C 5.171875 -13.304688 5.0625 -15.375 5.0625 -18 C 5.0625 -20.632812 5.34375 -23.882812 5.90625 -27.75 C 7.789062 -40.632812 13.640625 -47.078125 23.453125 -47.078125 C 27.242188 -47.078125 30.144531 -45.773438 32.15625 -43.171875 C 34.164062 -40.566406 35.171875 -37.191406 35.171875 -33.046875 C 35.171875 -28.898438 34.914062 -24.867188 34.40625 -20.953125 C 34.320312 -20.253906 33.921875 -19.890625 33.203125 -19.859375 L 14.109375 -19.203125 C 14.078125 -18.816406 14.0625 -18.300781 14.0625 -17.65625 C 14.0625 -14.75 14.570312 -12.441406 15.59375 -10.734375 C 16.613281 -9.035156 18.15625 -8.1875 20.21875 -8.1875 C 22.28125 -8.1875 24.191406 -8.488281 25.953125 -9.09375 C 27.710938 -9.707031 28.75 -10.015625 29.0625 -10.015625 C 29.375 -10.015625 29.644531 -9.910156 29.875 -9.703125 C 30.101562 -9.492188 30.21875 -9.207031 30.21875 -8.84375 L 29.453125 -2.046875 C 29.421875 -1.660156 29.347656 -1.410156 29.234375 -1.296875 C 29.117188 -1.179688 28.894531 -1.054688 28.5625 -0.921875 C 25.445312 -0.0234375 22.445312 0.421875 19.5625 0.421875 C 16.675781 0.421875 14.429688 0.078125 12.828125 -0.609375 C 11.234375 -1.304688 9.953125 -2.203125 8.984375 -3.296875 C 8.015625 -4.398438 7.226562 -5.71875 6.625 -7.25 Z M 15.03125 -28.90625 L 14.6875 -26.4375 L 24.78125 -26.9375 C 25.21875 -26.96875 25.5 -27.046875 25.625 -27.171875 C 26.007812 -27.554688 26.203125 -28.617188 26.203125 -30.359375 C 26.203125 -32.097656 26.144531 -33.320312 26.03125 -34.03125 C 25.914062 -34.738281 25.71875 -35.46875 25.4375 -36.21875 C 24.84375 -37.863281 23.828125 -38.6875 22.390625 -38.6875 C 20.960938 -38.6875 19.835938 -38.441406 19.015625 -37.953125 C 17.179688 -36.816406 15.851562 -33.800781 15.03125 -28.90625 Z M 15.03125 -28.90625 "/></g></g></g><g fill="#a6d16c" fill-opacity="1"><g transform="translate(145.925551, 99.986566)"><g><path d="M 6.625 -7.25 C 6.019531 -8.78125 5.609375 -10.296875 5.390625 -11.796875 C 5.171875 -13.304688 5.0625 -15.375 5.0625 -18 C 5.0625 -20.632812 5.34375 -23.882812 5.90625 -27.75 C 7.789062 -40.632812 13.640625 -47.078125 23.453125 -47.078125 C 27.242188 -47.078125 30.144531 -45.773438 32.15625 -43.171875 C 34.164062 -40.566406 35.171875 -37.191406 35.171875 -33.046875 C 35.171875 -28.898438 34.914062 -24.867188 34.40625 -20.953125 C 34.320312 -20.253906 33.921875 -19.890625 33.203125 -19.859375 L 14.109375 -19.203125 C 14.078125 -18.816406 14.0625 -18.300781 14.0625 -17.65625 C 14.0625 -14.75 14.570312 -12.441406 15.59375 -10.734375 C 16.613281 -9.035156 18.15625 -8.1875 20.21875 -8.1875 C 22.28125 -8.1875 24.191406 -8.488281 25.953125 -9.09375 C 27.710938 -9.707031 28.75 -10.015625 29.0625 -10.015625 C 29.375 -10.015625 29.644531 -9.910156 29.875 -9.703125 C 30.101562 -9.492188 30.21875 -9.207031 30.21875 -8.84375 L 29.453125 -2.046875 C 29.421875 -1.660156 29.347656 -1.410156 29.234375 -1.296875 C 29.117188 -1.179688 28.894531 -1.054688 28.5625 -0.921875 C 25.445312 -0.0234375 22.445312 0.421875 19.5625 0.421875 C 16.675781 0.421875 14.429688 0.078125 12.828125 -0.609375 C 11.234375 -1.304688 9.953125 -2.203125 8.984375 -3.296875 C 8.015625 -4.398438 7.226562 -5.71875 6.625 -7.25 Z M 15.03125 -28.90625 L 14.6875 -26.4375 L 24.78125 -26.9375 C 25.21875 -26.96875 25.5 -27.046875 25.625 -27.171875 C 26.007812 -27.554688 26.203125 -28.617188 26.203125 -30.359375 C 26.203125 -32.097656 26.144531 -33.320312 26.03125 -34.03125 C 25.914062 -34.738281 25.71875 -35.46875 25.4375 -36.21875 C 24.84375 -37.863281 23.828125 -38.6875 22.390625 -38.6875 C 20.960938 -38.6875 19.835938 -38.441406 19.015625 -37.953125 C 17.179688 -36.816406 15.851562 -33.800781 15.03125 -28.90625 Z M 15.03125 -28.90625 "/></g></g></g><g fill="#a6d16c" fill-opacity="1"><g transform="translate(176.261197, 99.986566)"><g><path d="M 18.78125 -45.71875 L 18.359375 -42.171875 C 22.066406 -45.441406 25.625 -47.078125 29.03125 -47.078125 C 33.351562 -47.078125 36.082031 -44.707031 37.21875 -39.96875 C 37.53125 -38.675781 37.6875 -37.457031 37.6875 -36.3125 C 37.6875 -35.164062 37.644531 -34.242188 37.5625 -33.546875 L 33.859375 -1.15625 C 33.753906 -0.507812 33.429688 -0.160156 32.890625 -0.109375 L 25.078125 0.15625 C 24.515625 0.101562 24.234375 -0.140625 24.234375 -0.578125 L 27.75 -31.1875 C 27.820312 -31.863281 27.859375 -32.46875 27.859375 -33 C 27.859375 -35.113281 27.363281 -36.550781 26.375 -37.3125 C 25.382812 -38.070312 24.128906 -38.453125 22.609375 -38.453125 C 21.085938 -38.453125 19.503906 -38.128906 17.859375 -37.484375 L 13.71875 -1.15625 C 13.613281 -0.507812 13.289062 -0.160156 12.75 -0.109375 L 4.953125 0.15625 C 4.378906 0.101562 4.09375 -0.140625 4.09375 -0.578125 L 9.203125 -45.53125 C 9.304688 -46.09375 9.628906 -46.398438 10.171875 -46.453125 L 17.734375 -46.734375 C 18.429688 -46.703125 18.78125 -46.363281 18.78125 -45.71875 Z M 18.78125 -45.71875 "/></g></g></g><g fill="#a6d16c" fill-opacity="1"><g transform="translate(209.340495, 99.986566)"><g><path d="M 29.109375 -1.734375 C 29.054688 -1.429688 28.960938 -1.210938 28.828125 -1.078125 C 28.703125 -0.953125 27.441406 -0.671875 25.046875 -0.234375 C 22.648438 0.203125 20.226562 0.421875 17.78125 0.421875 C 13.757812 0.421875 10.675781 -0.875 8.53125 -3.46875 C 6.394531 -6.070312 5.328125 -9.617188 5.328125 -14.109375 C 5.328125 -22.066406 6.28125 -31.316406 8.1875 -41.859375 C 9.195312 -47.523438 10.4375 -51.503906 11.90625 -53.796875 C 13.445312 -56.191406 15.300781 -57.867188 17.46875 -58.828125 C 20.175781 -60.015625 23.066406 -60.609375 26.140625 -60.609375 C 29.222656 -60.609375 31.285156 -60.519531 32.328125 -60.34375 C 33.367188 -60.175781 33.957031 -60.082031 34.09375 -60.0625 C 34.425781 -59.957031 34.59375 -59.632812 34.59375 -59.09375 L 33.703125 -51.90625 C 33.597656 -51.238281 33.335938 -50.90625 32.921875 -50.90625 C 32.515625 -50.90625 31.5625 -51.015625 30.0625 -51.234375 C 28.570312 -51.453125 27.363281 -51.5625 26.4375 -51.5625 C 23.957031 -51.5625 22.070312 -50.9375 20.78125 -49.6875 C 19.5 -48.4375 18.539062 -46.039062 17.90625 -42.5 C 17.28125 -38.957031 16.671875 -34.203125 16.078125 -28.234375 C 15.484375 -22.265625 15.1875 -17.695312 15.1875 -14.53125 C 15.1875 -10.789062 16.835938 -8.921875 20.140625 -8.921875 C 21.085938 -8.921875 22.742188 -9.082031 25.109375 -9.40625 C 27.484375 -9.726562 28.84375 -9.890625 29.1875 -9.890625 C 29.726562 -9.890625 30 -9.566406 30 -8.921875 Z M 29.109375 -1.734375 "/></g></g></g><g fill="#a6d16c" fill-opacity="1"><g transform="translate(234.961698, 99.986566)"><g><path d="M 37.484375 -45.71875 L 15.1875 17.546875 C 14.976562 18.191406 14.601562 18.523438 14.0625 18.546875 L 6.296875 18.828125 C 5.734375 18.796875 5.453125 18.535156 5.453125 18.046875 L 12.09375 -0.703125 L 6.0625 -45.53125 C 6.0625 -46.125 6.382812 -46.429688 7.03125 -46.453125 L 14.65625 -46.734375 C 15.238281 -46.703125 15.554688 -46.363281 15.609375 -45.71875 L 18.546875 -13.21875 L 27.9375 -45.53125 C 28.09375 -46.125 28.429688 -46.429688 28.953125 -46.453125 L 36.53125 -46.734375 C 37.164062 -46.679688 37.484375 -46.34375 37.484375 -45.71875 Z M 37.484375 -45.71875 "/></g></g></g><g fill="#a6d16c" fill-opacity="1"><g transform="translate(263.133337, 99.986566)"><g><path d="M 31.8125 -45.875 C 32.375 -45.664062 32.65625 -45.175781 32.65625 -44.40625 L 31.765625 -37.40625 C 31.710938 -36.894531 31.359375 -36.640625 30.703125 -36.640625 C 30.046875 -36.640625 29.421875 -36.769531 28.828125 -37.03125 C 26.328125 -38.132812 24.253906 -38.6875 22.609375 -38.6875 C 20.960938 -38.6875 19.648438 -38.003906 18.671875 -36.640625 C 17.691406 -35.273438 16.90625 -33.316406 16.3125 -30.765625 C 15.207031 -25.992188 14.65625 -21.640625 14.65625 -17.703125 C 14.65625 -11.359375 16.289062 -8.1875 19.5625 -8.1875 C 21.925781 -8.1875 23.84375 -8.488281 25.3125 -9.09375 C 26.78125 -9.707031 27.734375 -10.015625 28.171875 -10.015625 C 29.078125 -10.015625 29.53125 -9.625 29.53125 -8.84375 L 28.71875 -2.046875 C 28.664062 -1.585938 28.566406 -1.3125 28.421875 -1.21875 C 28.285156 -1.125 28.097656 -1.023438 27.859375 -0.921875 C 24.742188 -0.0234375 21.8125 0.421875 19.0625 0.421875 C 16.320312 0.421875 14.160156 0.078125 12.578125 -0.609375 C 10.992188 -1.304688 9.738281 -2.203125 8.8125 -3.296875 C 7.882812 -4.398438 7.140625 -5.722656 6.578125 -7.265625 C 5.566406 -9.921875 5.0625 -13.1875 5.0625 -17.0625 C 5.0625 -20.9375 5.3125 -24.3125 5.8125 -27.1875 C 6.320312 -30.0625 6.851562 -32.398438 7.40625 -34.203125 C 7.957031 -36.003906 8.695312 -37.734375 9.625 -39.390625 C 10.550781 -41.054688 11.632812 -42.429688 12.875 -43.515625 C 15.570312 -45.890625 19.148438 -47.078125 23.609375 -47.078125 C 26.597656 -47.078125 29.332031 -46.675781 31.8125 -45.875 Z M 31.8125 -45.875 "/></g></g></g><g fill="#a6d16c" fill-opacity="1"><g transform="translate(289.218255, 99.986566)"><g><path d="M 20.828125 -64.359375 L 13.71875 -1.203125 C 13.664062 -0.835938 13.570312 -0.578125 13.4375 -0.421875 C 13.3125 -0.265625 13.070312 -0.175781 12.71875 -0.15625 L 4.953125 0.15625 C 4.378906 0.101562 4.09375 -0.140625 4.09375 -0.578125 L 11.25 -64.078125 C 11.300781 -64.441406 11.390625 -64.703125 11.515625 -64.859375 C 11.648438 -65.015625 11.894531 -65.101562 12.25 -65.125 L 19.828125 -65.390625 C 20.492188 -65.316406 20.828125 -64.972656 20.828125 -64.359375 Z M 20.828125 -64.359375 "/></g></g></g><g fill="#a6d16c" fill-opacity="1"><g transform="translate(302.125916, 99.986566)"><g><path d="M 6.625 -7.25 C 6.019531 -8.78125 5.609375 -10.296875 5.390625 -11.796875 C 5.171875 -13.304688 5.0625 -15.375 5.0625 -18 C 5.0625 -20.632812 5.34375 -23.882812 5.90625 -27.75 C 7.789062 -40.632812 13.640625 -47.078125 23.453125 -47.078125 C 27.242188 -47.078125 30.144531 -45.773438 32.15625 -43.171875 C 34.164062 -40.566406 35.171875 -37.191406 35.171875 -33.046875 C 35.171875 -28.898438 34.914062 -24.867188 34.40625 -20.953125 C 34.320312 -20.253906 33.921875 -19.890625 33.203125 -19.859375 L 14.109375 -19.203125 C 14.078125 -18.816406 14.0625 -18.300781 14.0625 -17.65625 C 14.0625 -14.75 14.570312 -12.441406 15.59375 -10.734375 C 16.613281 -9.035156 18.15625 -8.1875 20.21875 -8.1875 C 22.28125 -8.1875 24.191406 -8.488281 25.953125 -9.09375 C 27.710938 -9.707031 28.75 -10.015625 29.0625 -10.015625 C 29.375 -10.015625 29.644531 -9.910156 29.875 -9.703125 C 30.101562 -9.492188 30.21875 -9.207031 30.21875 -8.84375 L 29.453125 -2.046875 C 29.421875 -1.660156 29.347656 -1.410156 29.234375 -1.296875 C 29.117188 -1.179688 28.894531 -1.054688 28.5625 -0.921875 C 25.445312 -0.0234375 22.445312 0.421875 19.5625 0.421875 C 16.675781 0.421875 14.429688 0.078125 12.828125 -0.609375 C 11.234375 -1.304688 9.953125 -2.203125 8.984375 -3.296875 C 8.015625 -4.398438 7.226562 -5.71875 6.625 -7.25 Z M 15.03125 -28.90625 L 14.6875 -26.4375 L 24.78125 -26.9375 C 25.21875 -26.96875 25.5 -27.046875 25.625 -27.171875 C 26.007812 -27.554688 26.203125 -28.617188 26.203125 -30.359375 C 26.203125 -32.097656 26.144531 -33.320312 26.03125 -34.03125 C 25.914062 -34.738281 25.71875 -35.46875 25.4375 -36.21875 C 24.84375 -37.863281 23.828125 -38.6875 22.390625 -38.6875 C 20.960938 -38.6875 19.835938 -38.441406 19.015625 -37.953125 C 17.179688 -36.816406 15.851562 -33.800781 15.03125 -28.90625 Z M 15.03125 -28.90625 "/></g></g></g><g fill="#7fa051" fill-opacity="1"><g transform="translate(256.634082, 127.585738)"><g><path d="M 12.59375 -0.75 C 12.570312 -0.613281 12.53125 -0.519531 12.46875 -0.46875 C 12.414062 -0.414062 11.867188 -0.289062 10.828125 -0.09375 C 9.796875 0.09375 8.75 0.1875 7.6875 0.1875 C 5.945312 0.1875 4.613281 -0.375 3.6875 -1.5 C 2.769531 -2.625 2.3125 -4.160156 2.3125 -6.109375 C 2.3125 -9.546875 2.722656 -13.546875 3.546875 -18.109375 C 3.984375 -20.566406 4.519531 -22.289062 5.15625 -23.28125 C 5.820312 -24.3125 6.625 -25.035156 7.5625 -25.453125 C 8.726562 -25.960938 9.976562 -26.21875 11.3125 -26.21875 C 12.644531 -26.21875 13.535156 -26.179688 13.984375 -26.109375 C 14.441406 -26.035156 14.695312 -25.992188 14.75 -25.984375 C 14.894531 -25.941406 14.96875 -25.804688 14.96875 -25.578125 L 14.578125 -22.453125 C 14.535156 -22.171875 14.425781 -22.03125 14.25 -22.03125 C 14.070312 -22.03125 13.660156 -22.078125 13.015625 -22.171875 C 12.367188 -22.265625 11.84375 -22.3125 11.4375 -22.3125 C 10.363281 -22.3125 9.546875 -22.039062 8.984375 -21.5 C 8.429688 -20.957031 8.019531 -19.921875 7.75 -18.390625 C 7.476562 -16.859375 7.210938 -14.800781 6.953125 -12.21875 C 6.703125 -9.632812 6.578125 -7.65625 6.578125 -6.28125 C 6.578125 -4.664062 7.289062 -3.859375 8.71875 -3.859375 C 9.125 -3.859375 9.835938 -3.925781 10.859375 -4.0625 C 11.890625 -4.207031 12.476562 -4.28125 12.625 -4.28125 C 12.863281 -4.28125 12.984375 -4.140625 12.984375 -3.859375 Z M 12.59375 -0.75 "/></g></g></g><g fill="#7fa051" fill-opacity="1"><g transform="translate(271.248979, 127.585738)"><g><path d="M 7.921875 0.1875 C 5.941406 0.1875 4.488281 -0.40625 3.5625 -1.59375 C 2.644531 -2.78125 2.1875 -4.515625 2.1875 -6.796875 C 2.1875 -7.847656 2.300781 -9.226562 2.53125 -10.9375 C 2.769531 -12.644531 2.988281 -13.882812 3.1875 -14.65625 C 3.394531 -15.4375 3.679688 -16.195312 4.046875 -16.9375 C 4.410156 -17.675781 4.847656 -18.285156 5.359375 -18.765625 C 6.453125 -19.835938 7.941406 -20.375 9.828125 -20.375 C 12.503906 -20.375 14.238281 -19.390625 15.03125 -17.421875 C 15.457031 -16.378906 15.671875 -15.113281 15.671875 -13.625 C 15.671875 -12.132812 15.554688 -10.59375 15.328125 -9 C 15.097656 -7.40625 14.878906 -6.222656 14.671875 -5.453125 C 14.472656 -4.691406 14.191406 -3.945312 13.828125 -3.21875 C 13.472656 -2.488281 13.046875 -1.882812 12.546875 -1.40625 C 11.441406 -0.34375 9.898438 0.1875 7.921875 0.1875 Z M 10.875 -7.140625 C 10.988281 -7.734375 11.144531 -8.835938 11.34375 -10.453125 C 11.539062 -12.078125 11.640625 -13.28125 11.640625 -14.0625 C 11.640625 -15.957031 10.953125 -16.90625 9.578125 -16.90625 C 8.929688 -16.90625 8.398438 -16.597656 7.984375 -15.984375 C 7.566406 -15.367188 7.226562 -14.347656 6.96875 -12.921875 C 6.457031 -10.023438 6.203125 -7.671875 6.203125 -5.859375 C 6.203125 -4.054688 6.882812 -3.15625 8.25 -3.15625 C 8.894531 -3.15625 9.429688 -3.460938 9.859375 -4.078125 C 10.285156 -4.703125 10.625 -5.722656 10.875 -7.140625 Z M 10.875 -7.140625 "/></g></g></g><g fill="#7fa051" fill-opacity="1"><g transform="translate(288.355432, 127.585738)"><g><path d="M 8.125 -19.78125 L 7.9375 -18.25 C 9.550781 -19.664062 11.09375 -20.375 12.5625 -20.375 C 14.4375 -20.375 15.617188 -19.347656 16.109375 -17.296875 C 16.242188 -16.734375 16.3125 -16.203125 16.3125 -15.703125 C 16.3125 -15.210938 16.289062 -14.816406 16.25 -14.515625 L 14.65625 -0.5 C 14.601562 -0.21875 14.460938 -0.0664062 14.234375 -0.046875 L 10.859375 0.0625 C 10.609375 0.0390625 10.484375 -0.0625 10.484375 -0.25 L 12 -13.5 C 12.039062 -13.789062 12.0625 -14.050781 12.0625 -14.28125 C 12.0625 -15.195312 11.84375 -15.816406 11.40625 -16.140625 C 10.976562 -16.472656 10.4375 -16.640625 9.78125 -16.640625 C 9.125 -16.640625 8.4375 -16.5 7.71875 -16.21875 L 5.9375 -0.5 C 5.894531 -0.21875 5.753906 -0.0664062 5.515625 -0.046875 L 2.140625 0.0625 C 1.890625 0.0390625 1.765625 -0.0625 1.765625 -0.25 L 3.984375 -19.703125 C 4.023438 -19.941406 4.160156 -20.078125 4.390625 -20.109375 L 7.671875 -20.21875 C 7.972656 -20.207031 8.125 -20.0625 8.125 -19.78125 Z M 8.125 -19.78125 "/></g></g></g><g fill="#7fa051" fill-opacity="1"><g transform="translate(306.197646, 127.585738)"><g><path d="M 8.125 -19.78125 L 7.9375 -18.25 C 9.550781 -19.664062 11.09375 -20.375 12.5625 -20.375 C 14.4375 -20.375 15.617188 -19.347656 16.109375 -17.296875 C 16.242188 -16.734375 16.3125 -16.203125 16.3125 -15.703125 C 16.3125 -15.210938 16.289062 -14.816406 16.25 -14.515625 L 14.65625 -0.5 C 14.601562 -0.21875 14.460938 -0.0664062 14.234375 -0.046875 L 10.859375 0.0625 C 10.609375 0.0390625 10.484375 -0.0625 10.484375 -0.25 L 12 -13.5 C 12.039062 -13.789062 12.0625 -14.050781 12.0625 -14.28125 C 12.0625 -15.195312 11.84375 -15.816406 11.40625 -16.140625 C 10.976562 -16.472656 10.4375 -16.640625 9.78125 -16.640625 C 9.125 -16.640625 8.4375 -16.5 7.71875 -16.21875 L 5.9375 -0.5 C 5.894531 -0.21875 5.753906 -0.0664062 5.515625 -0.046875 L 2.140625 0.0625 C 1.890625 0.0390625 1.765625 -0.0625 1.765625 -0.25 L 3.984375 -19.703125 C 4.023438 -19.941406 4.160156 -20.078125 4.390625 -20.109375 L 7.671875 -20.21875 C 7.972656 -20.207031 8.125 -20.0625 8.125 -19.78125 Z M 8.125 -19.78125 "/></g></g></g><g fill="#7fa051" fill-opacity="1"><g transform="translate(324.039861, 127.585738)"><g><path d="M 2.859375 -3.125 C 2.597656 -3.789062 2.421875 -4.453125 2.328125 -5.109375 C 2.234375 -5.765625 2.1875 -6.660156 2.1875 -7.796875 C 2.1875 -8.929688 2.3125 -10.332031 2.5625 -12 C 3.375 -17.582031 5.90625 -20.375 10.15625 -20.375 C 11.789062 -20.375 13.039062 -19.804688 13.90625 -18.671875 C 14.78125 -17.546875 15.21875 -16.085938 15.21875 -14.296875 C 15.21875 -12.503906 15.109375 -10.757812 14.890625 -9.0625 C 14.847656 -8.757812 14.671875 -8.601562 14.359375 -8.59375 L 6.109375 -8.3125 C 6.097656 -8.144531 6.09375 -7.921875 6.09375 -7.640625 C 6.09375 -6.378906 6.3125 -5.378906 6.75 -4.640625 C 7.1875 -3.910156 7.847656 -3.546875 8.734375 -3.546875 C 9.628906 -3.546875 10.457031 -3.675781 11.21875 -3.9375 C 11.988281 -4.195312 12.441406 -4.328125 12.578125 -4.328125 C 12.710938 -4.328125 12.828125 -4.28125 12.921875 -4.1875 C 13.023438 -4.101562 13.078125 -3.984375 13.078125 -3.828125 L 12.75 -0.890625 C 12.738281 -0.722656 12.707031 -0.613281 12.65625 -0.5625 C 12.601562 -0.507812 12.503906 -0.457031 12.359375 -0.40625 C 11.003906 -0.0078125 9.703125 0.1875 8.453125 0.1875 C 7.210938 0.1875 6.242188 0.0351562 5.546875 -0.265625 C 4.859375 -0.566406 4.304688 -0.953125 3.890625 -1.421875 C 3.472656 -1.898438 3.128906 -2.46875 2.859375 -3.125 Z M 6.5 -12.515625 L 6.359375 -11.4375 L 10.71875 -11.65625 C 10.90625 -11.664062 11.03125 -11.695312 11.09375 -11.75 C 11.257812 -11.914062 11.34375 -12.375 11.34375 -13.125 C 11.34375 -13.882812 11.316406 -14.414062 11.265625 -14.71875 C 11.210938 -15.03125 11.125 -15.347656 11 -15.671875 C 10.75 -16.378906 10.3125 -16.734375 9.6875 -16.734375 C 9.070312 -16.734375 8.585938 -16.628906 8.234375 -16.421875 C 7.441406 -15.929688 6.863281 -14.628906 6.5 -12.515625 Z M 6.5 -12.515625 "/></g></g></g><g fill="#7fa051" fill-opacity="1"><g transform="translate(340.694824, 127.585738)"><g><path d="M 13.765625 -19.84375 C 14.003906 -19.757812 14.125 -19.550781 14.125 -19.21875 L 13.75 -16.1875 C 13.726562 -15.96875 13.570312 -15.859375 13.28125 -15.859375 C 13 -15.859375 12.726562 -15.910156 12.46875 -16.015625 C 11.394531 -16.492188 10.5 -16.734375 9.78125 -16.734375 C 9.070312 -16.734375 8.503906 -16.4375 8.078125 -15.84375 C 7.648438 -15.257812 7.3125 -14.414062 7.0625 -13.3125 C 6.582031 -11.25 6.34375 -9.363281 6.34375 -7.65625 C 6.34375 -4.914062 7.050781 -3.546875 8.46875 -3.546875 C 9.488281 -3.546875 10.316406 -3.675781 10.953125 -3.9375 C 11.585938 -4.195312 12 -4.328125 12.1875 -4.328125 C 12.582031 -4.328125 12.78125 -4.160156 12.78125 -3.828125 L 12.421875 -0.890625 C 12.398438 -0.679688 12.359375 -0.554688 12.296875 -0.515625 C 12.234375 -0.484375 12.15625 -0.445312 12.0625 -0.40625 C 10.707031 -0.0078125 9.4375 0.1875 8.25 0.1875 C 7.0625 0.1875 6.125 0.0351562 5.4375 -0.265625 C 4.757812 -0.566406 4.21875 -0.953125 3.8125 -1.421875 C 3.414062 -1.898438 3.09375 -2.472656 2.84375 -3.140625 C 2.40625 -4.285156 2.1875 -5.695312 2.1875 -7.375 C 2.1875 -9.0625 2.296875 -10.523438 2.515625 -11.765625 C 2.734375 -13.003906 2.960938 -14.015625 3.203125 -14.796875 C 3.441406 -15.578125 3.757812 -16.328125 4.15625 -17.046875 C 4.5625 -17.765625 5.03125 -18.359375 5.5625 -18.828125 C 6.738281 -19.859375 8.289062 -20.375 10.21875 -20.375 C 11.507812 -20.375 12.691406 -20.195312 13.765625 -19.84375 Z M 13.765625 -19.84375 "/></g></g></g><g fill="#7fa051" fill-opacity="1"><g transform="translate(355.510383, 127.585738)"><g><path d="M 4.421875 -20.15625 C 4.671875 -22.601562 4.832031 -23.867188 4.90625 -23.953125 C 4.988281 -24.035156 5.109375 -24.082031 5.265625 -24.09375 L 8.46875 -24.21875 C 8.757812 -24.195312 8.90625 -24.054688 8.90625 -23.796875 C 8.695312 -22.554688 8.519531 -21.367188 8.375 -20.234375 L 12.28125 -20.375 C 12.539062 -20.363281 12.671875 -20.21875 12.671875 -19.9375 L 12.203125 -17.28125 C 12.160156 -17.007812 12.023438 -16.867188 11.796875 -16.859375 L 7.953125 -16.703125 C 7.203125 -9.878906 6.828125 -6.117188 6.828125 -5.421875 C 6.828125 -4.117188 7.382812 -3.46875 8.5 -3.46875 C 9.0625 -3.46875 9.609375 -3.554688 10.140625 -3.734375 C 10.679688 -3.910156 11.019531 -4 11.15625 -4 C 11.382812 -4 11.5 -3.851562 11.5 -3.5625 L 11.15625 -0.640625 C 11.132812 -0.472656 11.09375 -0.347656 11.03125 -0.265625 C 10.96875 -0.191406 10.691406 -0.0976562 10.203125 0.015625 C 9.722656 0.128906 8.894531 0.1875 7.71875 0.1875 C 6.007812 0.1875 4.738281 -0.207031 3.90625 -1 C 3.082031 -1.800781 2.671875 -2.992188 2.671875 -4.578125 C 2.671875 -6.160156 3.113281 -10.1875 4 -16.65625 L 2.359375 -16.59375 C 2.078125 -16.601562 1.9375 -16.742188 1.9375 -17.015625 L 2.390625 -19.703125 C 2.421875 -19.953125 2.566406 -20.085938 2.828125 -20.109375 Z M 4.421875 -20.15625 "/></g></g></g></svg>